<?xml version="1.0" encoding="utf-8"?>
<svg version="1.1" xmlns="http://www.w3.org/2000/svg" xmlns:xlink="http://www.w3.org/1999/xlink">
	<symbol id="navHome" viewBox="0 0 32 32" style="fill:currentColor">
		<path d="m16 0l-16 16h4v16h24v-16h4l-16-16zm8 28h-6v-6h-4v6h-6v-14l8-6 8 5.7v14z"/>
	</symbol>
	<symbol id="navFilter" viewBox="0 0 32 32" style="fill:currentColor">
		<g transform="scale(0.03125, 0.03125)">
			<path d="M400.627447 927.694607c-25.929556 0-46.966685-21.037129-46.966685-46.966685L353.660762 542.308283 74.339102 172.687014c-11.313673-14.065344-13.514805-33.45188-5.748934-49.719378 7.828292-16.267499 24.339338-26.663266 42.380226-26.663266l801.437042 0c17.673521 0 33.879622 9.968026 41.891086 25.746384s6.482645 34.736129-3.975545 48.985668L669.540036 541.14683l0 211.700563c0 25.929556-21.037129 46.966685-46.966685 46.966685-25.929556 0-46.966685-21.037129-46.966685-46.966685L575.606667 525.796214c0-9.968026 3.180436-19.691481 9.051143-27.764344l235.101529-307.793108L208.94173 190.238762l228.317009 306.142515c6.665817 8.317433 10.335393 18.7132 10.335393 29.41596l0 354.931708C447.594131 906.657478 426.557002 927.694607 400.627447 927.694607z"></path>
		</g>
	</symbol>
	<symbol id="navArrow" viewBox="0 0 32 32" style="fill:currentColor">
		<g transform="scale(0.03125, 0.03125)">
			<path d="M959.391517 255.877715 511.696078 703.573153 64.00064 255.877715Z"></path>
		</g>
	</symbol>
	<symbol id="backTop" viewBox="0 0 32 32" style="fill:currentColor">
		<g transform="scale(0.03125, 0.03125)">
			<path d="M849.513502 524.698207l-308.405045-310.430168c-6.833639-6.867408-15.761985-10.1645-24.656563-10.095939-1.201361-0.103354-2.231831-0.686638-3.432169-0.686638-5.015224 0-9.68457 1.167592-13.978363 3.090385-4.325515 1.647523-8.445346 4.155646-11.948123 7.658424l-278.290167 277.807167c-13.426801 13.392008-13.46057 35.130102-0.034792 48.556902 6.695492 6.729262 15.487739 10.096962 24.312732 10.096962 8.7902 0 17.546631-3.367701 24.27794-10.028401l221.320665-220.97581 0 604.927459c0 18.99154 15.384385 34.340109 34.340109 34.340109 18.952654 0 34.340109-15.34857 34.340109-34.340109L547.359834 318.007751l253.460666 255.111259c6.696516 6.730285 15.557324 10.129708 24.347524 10.129708s17.512862-3.331885 24.208355-9.994632C862.872764 559.897893 862.90551 538.123984 849.513502 524.698207zM890.757858 134.805242 135.282614 134.805242c-18.954701 0-34.340109-15.384385-34.340109-34.340109s15.384385-34.340109 34.340109-34.340109l755.475244 0c18.98847 0 34.339086 15.384385 34.339086 34.340109S909.745305 134.805242 890.757858 134.805242z"></path>
		</g>
	</symbol>
	<symbol id="navStart" viewBox="0 0 32 32" style="fill:currentColor">
		<g transform="scale(0.03125, 0.03125)">
			<path d="M102.548584 218.264049l818.644959 0 0 102.33062-818.644959 0 0-102.33062ZM102.548584 461.299271l818.644959 0 0 102.33062-818.644959 0 0-102.33062ZM102.548584 704.334493l818.644959 0 0 102.33062-818.644959 0 0-102.33062Z"></path>
		</g>
	</symbol>
	<symbol id="navClose" viewBox="0 0 32 32" style="fill:currentColor">
		<g transform="scale(0.03125, 0.03125)">
			<path d="M588.99845 509.618605l412.775194-412.775194c19.051163-19.051163 19.051163-57.153488 0-82.555039-19.051163-19.051163-57.153488-19.051163-82.555039 0L512.793798 427.063566 100.018605 20.63876c-19.051163-19.051163-57.153488-19.051163-82.555039 0-19.051163 19.051163-19.051163 57.153488 0 82.555039L430.23876 509.618605l-412.775194 412.775194c-19.051163 19.051163-19.051163 57.153488 0 82.555039C30.164341 1011.299225 49.215504 1017.649612 61.916279 1017.649612s31.751938-6.350388 38.102326-19.051163L512.793798 592.173643l412.775194 412.775194c12.700775 12.700775 25.40155 19.051163 38.102326 19.051163 12.700775 0 31.751938-6.350388 38.102326-19.051163 19.051163-19.051163 19.051163-57.153488 0-82.555039L588.99845 509.618605z"></path>
		</g>
	</symbol>
	<symbol id="navFolder1" viewBox="0 0 32 32" style="fill:currentColor">
		<g transform="scale(0.03125, 0.03125)">
			<path d="M853.333333 260.352 512 260.352 512 192c0-35.328-28.672-64-64-64L170.666667 128c-47.104 0-85.333333 38.229333-85.333333 85.333333l0 132.352L85.333333 810.666667l0 0.085333c0 46.933333 38.4 85.333333 85.333333 85.333333l682.666667 0c46.933333 0 85.333333-38.4 85.333333-85.333333l0-465.066667C938.666667 298.752 900.266667 260.352 853.333333 260.352zM874.666667 789.418667c0 23.466667-19.2 42.666667-42.666667 42.666667L192 832.085333c-23.466667 0-42.666667-19.2-42.666667-42.666667l0-422.4L149.333333 263.082667 149.333333 234.666667c0-23.552 19.114667-42.666667 42.666667-42.666667l213.333333 0c23.552 0 42.666667 19.114667 42.666667 42.666667l0 89.685333 384 0c23.466667 0 42.666667 19.2 42.666667 42.666667L874.666667 789.418667z"></path>
		</g>
	</symbol>
	<symbol id="navFolder2" viewBox="0 0 32 32" style="fill:currentColor">
		<g transform="scale(0.03125, 0.03125)">
			<path d="M950.048 530.016c0-12-10.016-18.016-28-18.016l-580 0c-14.016 0-30.016 4-46.016 12s-30.016 16-38.016 28l-158.016 194.016c-6.016 8-8 14.016-8 20 0 12 8 20 28 20l580 0c14.016 0 30.016-4 46.016-12s28-18.016 38.016-28l156-194.016c6.016-8 10.016-16 10.016-22.016zM342.048 444l408 0 0-86.016c0-14.016-4-26.016-14.016-36s-22.016-14.016-36-14.016l-308 0c-14.016 0-26.016-6.016-36-16s-14.016-22.016-14.016-36l0-34.016c0-14.016-6.016-26.016-16-36s-22.016-16-36-16l-170.016 0c-14.016 0-26.016 6.016-36 16s-16 22.016-16 36l0 454.016 136-168c16-18.016 38.016-34.016 62.016-46.016 26.016-12 52-18.016 76-18.016zM1018.048 530.016c0 22.016-8 44-24 64l-158.016 194.016c-16 20-36 34.016-62.016 46.016-26.016 14.016-50.016 20-74.016 20l-580 0c-34.016 0-62.016-12-84-36-24-24-36-52-36-84l0-512c0-32 12-60 36-84 22.016-24 50.016-36 84-36l170.016 0c32 0 60 12 84 36s36 52 36 84l0 16 290.016 0c32 0 60 12 84 36s36 52 36 84l0 86.016 102.016 0c18.016 0 36 4 52 12 16 10.016 28 22.016 36 38.016 6.016 12 8 24 8 36z"></path>
		</g>
	</symbol>
	<symbol id="linkAnchor" viewBox="0 0 32 32" style="fill:currentColor">
		<g transform="scale(0.03125, 0.03125)">
			<path d="M616.601336 477.134935c0-96.148827-76.528977-174.34477-170.628122-174.34477l-138.339742 0.027629c-98.788957 0.007163-179.177845 78.195943-179.177845 174.330444l0.017396 69.698408c-0.024559 96.15292 80.406285 174.359097 179.205475 174.359097l38.696324 0.00307c19.815301-0.024559 35.851533-15.624862 35.848463-34.882462 0.00307-19.250436-16.032138-34.853809-35.823903-34.853809l-38.749536 0c-59.268872-0.007163-109.451808-46.925752-109.465111-104.604406l0-69.733201c0-57.668421 50.154283-104.58394 109.462041-104.594173l138.329509-0.024559c56.472176 0.024559 100.867292 46.911426 100.890828 104.618732l1.496074 34.872229c0 9.627265 3.810792 18.365276 9.969049 24.65554 6.178723 6.310729 14.728446 10.209526 24.153096 10.206456 18.84623 0.00307 34.118052-15.600303 34.118052-34.860972L616.601336 477.134935zM895.526977 477.152331c0.024559-96.148827-80.406285-174.355003-179.205475-174.359097l-38.696324-0.00307c-19.815301 0.024559-35.851533 15.627932-35.851533 34.882462 0 19.254529 16.036231 34.853809 35.826973 34.857902l38.745443 0c59.268872 0.00307 109.451808 46.922682 109.469204 104.604406l0 69.733201c0 57.668421-50.154283 104.58394-109.462041 104.591103l-138.329509 0.027629c-56.472176-0.024559-100.867292-46.911426-100.890828-104.618732l-1.496074-34.872229c0-9.630335-3.810792-18.365276-9.969049-24.65554-6.181793-6.314823-14.728446-10.209526-24.153096-10.205433-18.84623-0.007163-34.119075 15.600303-34.119075 34.860972l0 34.872229c0 96.145757 76.532047 174.340677 170.631192 174.340677l138.339742-0.024559c98.788957-0.007163 179.177845-78.199013 179.173752-174.330444L895.526977 477.152331z"></path>
		</g>
	</symbol>
    <symbol id="loading" viewBox="0 0 32 32" style="fill:currentColor">
        <g transform="scale(0.03125, 0.03125)">
            <path d="M955.733333 765.866667c0 0 0 2.133333 0 2.133333-12.8 21.333333-38.4 27.733333-57.6 14.933333-19.2-10.666667-27.733333-36.266667-17.066667-57.6l0 0c36.266667-64 57.6-136.533333 57.6-213.333333s-21.333333-151.466667-57.6-213.333333l0 0c-10.666667-19.2-4.266667-44.8 17.066667-57.6 21.333333-12.8 46.933333-4.266667 57.6 14.933333 0 0 0 2.133333 0 2.133333 42.666667 74.666667 68.266667 162.133333 68.266667 253.866667S998.4 691.2 955.733333 765.866667zM768 955.733333C768 955.733333 765.866667 955.733333 768 955.733333c-76.8 42.666667-164.266667 68.266667-256 68.266667s-179.2-25.6-253.866667-68.266667c0 0-2.133333 0-2.133333 0-21.333333-12.8-27.733333-38.4-14.933333-57.6 12.8-21.333333 38.4-27.733333 57.6-14.933333 0 0 0 0 2.133333 0l0 0C362.666667 917.333333 435.2 938.666667 512 938.666667s149.333333-21.333333 211.2-57.6l0 0c0 0 0 0 2.133333 0 21.333333-12.8 46.933333-4.266667 57.6 14.933333C795.733333 917.333333 789.333333 942.933333 768 955.733333zM727.466667 142.933333 727.466667 142.933333C663.466667 106.666667 590.933333 85.333333 512 85.333333s-151.466667 21.333333-213.333333 57.6l0 0c-19.2 10.666667-44.8 4.266667-57.6-17.066667C228.266667 106.666667 234.666667 81.066667 256 68.266667c0 0 2.133333 0 2.133333 0C332.8 25.6 420.266667 0 512 0s179.2 25.6 253.866667 68.266667c0 0 2.133333 0 2.133333 0 21.333333 12.8 27.733333 38.4 14.933333 57.6C772.266667 147.2 746.666667 153.6 727.466667 142.933333zM125.866667 782.933333C106.666667 795.733333 81.066667 789.333333 68.266667 768c0 0 0-2.133333 0-2.133333C25.6 691.2 0 603.733333 0 512s25.6-179.2 68.266667-253.866667c0 0 0-2.133333 0-2.133333 12.8-21.333333 38.4-27.733333 57.6-14.933333 21.333333 12.8 27.733333 38.4 14.933333 57.6 0 0 0 0 0 2.133333l0 0C106.666667 362.666667 85.333333 435.2 85.333333 512s21.333333 149.333333 57.6 211.2l0 0c0 0 0 0 0 2.133333C153.6 746.666667 147.2 772.266667 125.866667 782.933333z"></path>
        </g>
    </symbol>
</svg>